<svg xmlns="http://www.w3.org/2000/svg" width="36" height="36" viewBox="0 0 36 36"><defs><style>.a{fill:none;}.b{fill:#fffc00;}.c{fill:#6238f2;}</style></defs><g transform="translate(-14.702 -59.702)"><path class="a" d="M0,0H36V36H0Z" transform="translate(14.702 59.702)"/><g transform="translate(20.549 65.548)"><path class="b" d="M273.067,8.533V20.1h11.571A11.571,11.571,0,0,0,273.067,8.533Z" transform="translate(-261.067 -8.104)"/><path class="c" d="M8.533,53.381a10.714,10.714,0,0,0,21.429,0H19.247V42.667A10.714,10.714,0,0,0,8.533,53.381Z" transform="translate(-8.104 -40.524)"/><path class="a" d="M21.888,44.879H11.541V34.532a.4.4,0,0,0-.4-.4A11.143,11.143,0,1,0,22.286,45.277.4.4,0,0,0,21.888,44.879ZM11.143,55.624a10.347,10.347,0,0,1-.4-20.684V45.277a.4.4,0,0,0,.4.4H21.48A10.358,10.358,0,0,1,11.143,55.624Z" transform="translate(0 -32.42)"/><path class="a" d="M264.963,0a.429.429,0,0,0-.429.429V12a.429.429,0,0,0,.429.429h11.571a.429.429,0,0,0,.429-.429A12.013,12.013,0,0,0,264.963,0Zm.429.868a11.154,11.154,0,0,1,10.7,10.7h-10.7Z" transform="translate(-252.962)"/></g></g></svg>